<svg xmlns="http://www.w3.org/2000/svg" version="1.1" xmlns:xlink="http://www.w3.org/1999/xlink" xmlns:svgjs="http://svgjs.dev/svgjs" width="2000" height="1151" viewBox="0 0 2000 1151"><g transform="matrix(1,0,0,1,-1.2121212121212466,0.5299382130421009)"><svg viewBox="0 0 396 228" data-background-color="#ececea" preserveAspectRatio="xMidYMid meet" height="1151" width="2000" xmlns="http://www.w3.org/2000/svg" xmlns:xlink="http://www.w3.org/1999/xlink"><g id="tight-bounds" transform="matrix(1,0,0,1,0.2400000000000091,1.174107906637886)"><svg viewBox="0 0 395.52 226.6427612691736" height="226.6427612691736" width="395.52"><g><svg viewBox="0 0 397.4975999999999 227.77597507551945" height="226.6427612691736" width="395.52"><g><rect width="397.4975999999999" height="4.620126674333347" x="0" y="127.53201335688742" fill="#000000" opacity="1" stroke-width="0" stroke="transparent" fill-opacity="1" class="rect-yte-0" data-fill-palette-color="secondary" rx="1%" id="yte-0" data-palette-color="#009b7d"></rect></g><g transform="matrix(1,0,0,1,0.9887999999999693,144.2467124771196)"><svg viewBox="0 0 395.52 83.52926259839985" height="83.52926259839985" width="395.52"><g id="textblocktransform"><svg viewBox="0 0 395.52 83.52926259839985" height="83.52926259839985" width="395.52" id="textblock"><g><svg viewBox="0 0 395.52 51.23168998923573" height="51.23168998923573" width="395.52"><g transform="matrix(1,0,0,1,0,0)"><svg width="395.52" viewBox="2.25 -35.3 278.67 36.099999999999994" height="51.23168998923573" data-palette-color="#009b7d"><path d="M6.8-8.9L2.25-8.9 2.25-16.35 6.8-16.35 6.8-8.9ZM6.8-16.3L2.25-16.3Q2.25-19.1 3.48-21.3 4.7-23.5 6.78-24.78 8.85-26.05 11.5-26.05L11.5-26.05 11.5-22.1Q9.3-22.1 8.05-20.6 6.8-19.1 6.8-16.3L6.8-16.3ZM20.4-18.6L16.15-17.75Q15.9-20 14.58-21.05 13.25-22.1 11.45-22.1L11.45-22.1 11.45-26.05Q13.8-26.05 15.7-25.1 17.6-24.15 18.85-22.48 20.1-20.8 20.4-18.6L20.4-18.6ZM2.25-8.95L2.25-8.95 6.8-8.95Q6.8-6.2 8.05-4.67 9.3-3.15 11.5-3.15L11.5-3.15 11.5 0.8Q8.85 0.8 6.78-0.48 4.7-1.75 3.48-3.95 2.25-6.15 2.25-8.95ZM16.15-7.5L16.15-7.5 20.4-6.65Q20.1-4.5 18.85-2.8 17.6-1.1 15.7-0.15 13.8 0.8 11.45 0.8L11.45 0.8 11.45-3.15Q13.25-3.15 14.58-4.23 15.9-5.3 16.15-7.5ZM42.5 0L37.95 0 37.95-17.2 42.5-17.2 42.5 0ZM31.85 0.75L31.85 0.75 32.2-3Q34-3 35.27-3.9 36.55-4.8 37.25-6.55 37.95-8.3 37.95-10.7L37.95-10.7 40.2-10.8Q40.2-7.4 39.1-4.8 38-2.2 36.12-0.73 34.25 0.75 31.85 0.75ZM32.2-3L31.85 0.75Q29.6 0.75 27.75-0.3 25.9-1.35 24.8-3.18 23.7-5 23.7-7.25L23.7-7.25 28-7.4Q28-5.5 29.27-4.25 30.55-3 32.2-3L32.2-3ZM28-7.4L23.7-7.25Q23.7-9.6 24.87-11.38 26.05-13.15 28.05-14.2 30.05-15.25 32.6-15.25L32.6-15.25 32.85-11.75Q30.75-11.75 29.37-10.53 28-9.3 28-7.4L28-7.4ZM40.3-11.75L32.85-11.75 32.6-15.25 40.3-15.25 40.3-11.75ZM40.2-10.8L37.95-10.7 37.95-17.15 40.2-17.15 40.2-10.8ZM42.5-17.1L42.5-17.1 37.95-17.1Q37.95-19.3 36.62-20.7 35.3-22.1 33.2-22.1L33.2-22.1 33.2-26Q35.9-26 37.97-24.85 40.05-23.7 41.27-21.68 42.5-19.65 42.5-17.1ZM28.5-17.7L28.5-17.7 24.3-18.55Q24.6-20.8 25.82-22.45 27.05-24.1 28.97-25.05 30.9-26 33.25-26L33.25-26 33.25-22.1Q31.4-22.1 30.07-21.03 28.75-19.95 28.5-17.7ZM52.2 0L47.65 0 47.65-25.25 52.2-25.25 52.2 0ZM52.2-16.9L50.15-16.9Q50.15-19.45 51-21.48 51.85-23.5 53.32-24.65 54.8-25.8 56.6-25.8L56.6-25.8 56.2-21.55Q54.45-21.55 53.32-20.23 52.2-18.9 52.2-16.9L52.2-16.9ZM60.75-24.2L59.2-20.4Q58.6-20.9 57.77-21.23 56.95-21.55 56.2-21.55L56.2-21.55 56.6-25.8Q57.75-25.8 58.85-25.38 59.95-24.95 60.75-24.2L60.75-24.2ZM80.14-11.25L63.09-11.25 63.09-14.5 80.14-14.5 80.14-11.25ZM71.09 0.8L70.84 0.8 70.84-3.15 71.09-3.15 71.09 0.8ZM66.19-8.95L61.64-8.95 61.64-16.3 66.19-16.3 66.19-8.95ZM80.14-14.5L75.59-14.5 75.59-17.1 80.14-17.1 80.14-14.5ZM80.14-17.1L80.14-17.1 75.59-17.1Q75.59-19.3 74.27-20.7 72.94-22.1 70.84-22.1L70.84-22.1 70.84-26Q73.54-26 75.62-24.85 77.69-23.7 78.92-21.68 80.14-19.65 80.14-17.1ZM75.79-7.5L75.79-7.5 80.04-6.65Q79.74-4.5 78.49-2.8 77.24-1.1 75.34-0.15 73.44 0.8 71.09 0.8L71.09 0.8 71.09-3.15Q72.89-3.15 74.22-4.23 75.54-5.3 75.79-7.5ZM66.19-16.25L61.64-16.25Q61.64-19.1 62.87-21.28 64.09-23.45 66.17-24.73 68.24-26 70.89-26L70.89-26 70.89-22.1Q68.69-22.1 67.44-20.58 66.19-19.05 66.19-16.25L66.19-16.25ZM61.64-8.95L61.64-8.95 66.19-8.95Q66.19-6.2 67.44-4.67 68.69-3.15 70.89-3.15L70.89-3.15 70.89 0.8Q68.24 0.8 66.17-0.48 64.09-1.75 62.87-3.95 61.64-6.15 61.64-8.95ZM102.04-11.25L84.99-11.25 84.99-14.5 102.04-14.5 102.04-11.25ZM92.99 0.8L92.74 0.8 92.74-3.15 92.99-3.15 92.99 0.8ZM88.09-8.95L83.54-8.95 83.54-16.3 88.09-16.3 88.09-8.95ZM102.04-14.5L97.49-14.5 97.49-17.1 102.04-17.1 102.04-14.5ZM102.04-17.1L102.04-17.1 97.49-17.1Q97.49-19.3 96.17-20.7 94.84-22.1 92.74-22.1L92.74-22.1 92.74-26Q95.44-26 97.52-24.85 99.59-23.7 100.82-21.68 102.04-19.65 102.04-17.1ZM97.69-7.5L97.69-7.5 101.94-6.65Q101.64-4.5 100.39-2.8 99.14-1.1 97.24-0.15 95.34 0.8 92.99 0.8L92.99 0.8 92.99-3.15Q94.79-3.15 96.12-4.23 97.44-5.3 97.69-7.5ZM88.09-16.25L83.54-16.25Q83.54-19.1 84.77-21.28 85.99-23.45 88.07-24.73 90.14-26 92.79-26L92.79-26 92.79-22.1Q90.59-22.1 89.34-20.58 88.09-19.05 88.09-16.25L88.09-16.25ZM83.54-8.95L83.54-8.95 88.09-8.95Q88.09-6.2 89.34-4.67 90.59-3.15 92.79-3.15L92.79-3.15 92.79 0.8Q90.14 0.8 88.07-0.48 85.99-1.75 84.77-3.95 83.54-6.15 83.54-8.95ZM111.24 0L106.69 0 106.69-25.25 111.24-25.25 111.24 0ZM111.24-16.9L109.19-16.9Q109.19-19.45 110.04-21.48 110.89-23.5 112.36-24.65 113.84-25.8 115.64-25.8L115.64-25.8 115.24-21.55Q113.49-21.55 112.36-20.23 111.24-18.9 111.24-16.9L111.24-16.9ZM119.79-24.2L118.24-20.4Q117.64-20.9 116.81-21.23 115.99-21.55 115.24-21.55L115.24-21.55 115.64-25.8Q116.79-25.8 117.89-25.38 118.99-24.95 119.79-24.2L119.79-24.2ZM136.73-8.9L132.18-8.9 132.18-16.35 136.73-16.35 136.73-8.9ZM136.73-16.3L132.18-16.3Q132.18-19.1 133.41-21.3 134.63-23.5 136.71-24.78 138.78-26.05 141.43-26.05L141.43-26.05 141.43-22.1Q139.23-22.1 137.98-20.6 136.73-19.1 136.73-16.3L136.73-16.3ZM150.33-18.6L146.08-17.75Q145.83-20 144.51-21.05 143.18-22.1 141.38-22.1L141.38-22.1 141.38-26.05Q143.73-26.05 145.63-25.1 147.53-24.15 148.78-22.48 150.03-20.8 150.33-18.6L150.33-18.6ZM132.18-8.95L132.18-8.95 136.73-8.95Q136.73-6.2 137.98-4.67 139.23-3.15 141.43-3.15L141.43-3.15 141.43 0.8Q138.78 0.8 136.71-0.48 134.63-1.75 133.41-3.95 132.18-6.15 132.18-8.95ZM146.08-7.5L146.08-7.5 150.33-6.65Q150.03-4.5 148.78-2.8 147.53-1.1 145.63-0.15 143.73 0.8 141.38 0.8L141.38 0.8 141.38-3.15Q143.18-3.15 144.51-4.23 145.83-5.3 146.08-7.5ZM171.73-8.95L167.18-8.95 167.18-16.3 171.73-16.3 171.73-8.95ZM157.68-8.95L153.13-8.95 153.13-16.3 157.68-16.3 157.68-8.95ZM162.58-22.05L162.28-22.05 162.28-26 162.58-26 162.58-22.05ZM162.58 0.75L162.28 0.75 162.28-3.2 162.58-3.2 162.58 0.75ZM157.68-16.25L153.13-16.25Q153.13-19.05 154.36-21.25 155.58-23.45 157.66-24.73 159.73-26 162.38-26L162.38-26 162.38-22.05Q160.18-22.05 158.93-20.55 157.68-19.05 157.68-16.25L157.68-16.25ZM171.73-16.25L171.73-16.25 167.18-16.25Q167.18-19.05 165.96-20.55 164.73-22.05 162.48-22.05L162.48-22.05 162.48-26Q165.13-26 167.21-24.73 169.28-23.45 170.51-21.25 171.73-19.05 171.73-16.25ZM153.13-9L153.13-9 157.68-9Q157.68-6.25 158.93-4.73 160.18-3.2 162.38-3.2L162.38-3.2 162.38 0.75Q159.73 0.75 157.66-0.53 155.58-1.8 154.36-4 153.13-6.2 153.13-9ZM167.18-9L171.73-9Q171.73-6.2 170.51-4 169.28-1.8 167.21-0.53 165.13 0.75 162.48 0.75L162.48 0.75 162.48-3.2Q164.73-3.2 165.96-4.73 167.18-6.25 167.18-9L167.18-9ZM180.93 0L176.38 0 176.38-25.25 180.93-25.25 180.93 0ZM194.98 0L190.43 0 190.43-17.2 194.98-17.2 194.98 0ZM194.98-17.2L190.43-17.2Q190.43-19.3 189.13-20.63 187.83-21.95 185.78-21.95L185.78-21.95 186.93-26Q189.23-26 191.05-24.85 192.88-23.7 193.93-21.7 194.98-19.7 194.98-17.2L194.98-17.2ZM180.93-17.1L178.93-17.1Q178.93-19.65 179.98-21.68 181.03-23.7 182.83-24.85 184.63-26 186.93-26L186.93-26 185.78-21.95Q183.63-21.95 182.28-20.6 180.93-19.25 180.93-17.1L180.93-17.1ZM204.68 0L200.13 0 200.13-25.25 204.68-25.25 204.68 0ZM218.73 0L214.18 0 214.18-17.2 218.73-17.2 218.73 0ZM218.73-17.2L214.18-17.2Q214.18-19.3 212.88-20.63 211.58-21.95 209.53-21.95L209.53-21.95 210.68-26Q212.98-26 214.8-24.85 216.63-23.7 217.68-21.7 218.73-19.7 218.73-17.2L218.73-17.2ZM204.68-17.1L202.68-17.1Q202.68-19.65 203.73-21.68 204.78-23.7 206.58-24.85 208.38-26 210.68-26L210.68-26 209.53-21.95Q207.38-21.95 206.03-20.6 204.68-19.25 204.68-17.1L204.68-17.1ZM241.12-11.25L224.07-11.25 224.07-14.5 241.12-14.5 241.12-11.25ZM232.07 0.8L231.82 0.8 231.82-3.15 232.07-3.15 232.07 0.8ZM227.17-8.95L222.62-8.95 222.62-16.3 227.17-16.3 227.17-8.95ZM241.12-14.5L236.57-14.5 236.57-17.1 241.12-17.1 241.12-14.5ZM241.12-17.1L241.12-17.1 236.57-17.1Q236.57-19.3 235.25-20.7 233.92-22.1 231.82-22.1L231.82-22.1 231.82-26Q234.52-26 236.6-24.85 238.67-23.7 239.9-21.68 241.12-19.65 241.12-17.1ZM236.77-7.5L236.77-7.5 241.02-6.65Q240.72-4.5 239.47-2.8 238.22-1.1 236.32-0.15 234.42 0.8 232.07 0.8L232.07 0.8 232.07-3.15Q233.87-3.15 235.2-4.23 236.52-5.3 236.77-7.5ZM227.17-16.25L222.62-16.25Q222.62-19.1 223.85-21.28 225.07-23.45 227.15-24.73 229.22-26 231.87-26L231.87-26 231.87-22.1Q229.67-22.1 228.42-20.58 227.17-19.05 227.17-16.25L227.17-16.25ZM222.62-8.95L222.62-8.95 227.17-8.95Q227.17-6.2 228.42-4.67 229.67-3.15 231.87-3.15L231.87-3.15 231.87 0.8Q229.22 0.8 227.15-0.48 225.07-1.75 223.85-3.95 222.62-6.15 222.62-8.95ZM249.57-8.9L245.02-8.9 245.02-16.35 249.57-16.35 249.57-8.9ZM249.57-16.3L245.02-16.3Q245.02-19.1 246.25-21.3 247.47-23.5 249.55-24.78 251.62-26.05 254.27-26.05L254.27-26.05 254.27-22.1Q252.07-22.1 250.82-20.6 249.57-19.1 249.57-16.3L249.57-16.3ZM263.17-18.6L258.92-17.75Q258.67-20 257.35-21.05 256.02-22.1 254.22-22.1L254.22-22.1 254.22-26.05Q256.57-26.05 258.47-25.1 260.37-24.15 261.62-22.48 262.87-20.8 263.17-18.6L263.17-18.6ZM245.02-8.95L245.02-8.95 249.57-8.95Q249.57-6.2 250.82-4.67 252.07-3.15 254.27-3.15L254.27-3.15 254.27 0.8Q251.62 0.8 249.55-0.48 247.47-1.75 246.25-3.95 245.02-6.15 245.02-8.95ZM258.92-7.5L258.92-7.5 263.17-6.65Q262.87-4.5 261.62-2.8 260.37-1.1 258.47-0.15 256.57 0.8 254.22 0.8L254.22 0.8 254.22-3.15Q256.02-3.15 257.35-4.23 258.67-5.3 258.92-7.5ZM273.42-7.65L268.87-7.65 268.87-35.3 273.42-35.25 273.42-7.65ZM279.72-21.5L265.97-21.5 265.97-25.25 279.72-25.25 279.72-21.5ZM268.87-7.7L268.87-7.7 273.42-7.7Q273.42-6.25 273.82-5.25 274.22-4.25 274.97-3.73 275.72-3.2 276.77-3.2L276.77-3.2 276.37 0.75Q272.87 0.75 270.87-1.48 268.87-3.7 268.87-7.7ZM279.12-4.05L279.12-4.05 280.92-0.8Q279.92-0.05 278.74 0.35 277.57 0.75 276.37 0.75L276.37 0.75 276.77-3.2Q277.42-3.2 277.99-3.43 278.57-3.65 279.12-4.05Z" opacity="1" transform="matrix(1,0,0,1,0,0)" fill="#000000" class="wordmark-text-0" data-fill-palette-color="primary" id="text-0"></path></svg></g></svg></g><g transform="matrix(1,0,0,1,75.54432,63.32626243513455)"><svg viewBox="0 0 244.43135999999998 20.203000163265305" height="20.203000163265305" width="244.43135999999998"><g transform="matrix(1,0,0,1,0,0)"><svg width="244.43135999999998" viewBox="2.25 -37 587.94 48.6" height="20.203000163265305" data-palette-color="#009b7d"><path d="M13.55 11.6L13.55 11.6Q11.25 11.6 9.08 11.05 6.9 10.5 5.2 9.4L5.2 9.4 6.85 5.5Q8.05 6.45 9.65 7.08 11.25 7.7 13.55 7.7L13.55 7.7Q17.1 7.7 19.13 5.83 21.15 3.95 21.15-0.15L21.15-0.15 21.15-3.35Q20.15-2.15 18.28-1.07 16.4 0 13.8 0L13.8 0Q10.85 0 8.2-1.53 5.55-3.05 3.9-6 2.25-8.95 2.25-13.1L2.25-13.1Q2.25-17 3.88-20.05 5.5-23.1 8.25-24.85 11-26.6 14.3-26.6L14.3-26.6Q16.5-26.6 18.3-25.85 20.1-25.1 21.4-24L21.4-24 21.4-26 25.5-26 25.5-0.6Q25.5 3.7 24 6.4 22.5 9.1 19.83 10.35 17.15 11.6 13.55 11.6ZM14.8-4L14.8-4Q16.8-4 18.4-4.9 20-5.8 21-7L21-7 21-20.6Q19.9-21.4 18.35-22.05 16.8-22.7 14.75-22.7L14.75-22.7Q12.7-22.7 10.9-21.6 9.1-20.5 7.98-18.43 6.85-16.35 6.85-13.35L6.85-13.35Q6.85-10.5 7.98-8.4 9.1-6.3 10.9-5.15 12.7-4 14.8-4ZM44.2 0.6L44.2 0.6Q40.5 0.6 37.55-1.13 34.6-2.85 32.92-5.93 31.25-9 31.25-13L31.25-13Q31.25-17.2 32.95-20.25 34.65-23.3 37.6-24.95 40.55-26.6 44.2-26.6L44.2-26.6Q47.85-26.6 50.77-24.95 53.7-23.3 55.42-20.28 57.15-17.25 57.15-13.1L57.15-13.1Q57.15-8.95 55.45-5.88 53.75-2.8 50.82-1.1 47.9 0.6 44.2 0.6ZM44.2-3.4L44.2-3.4Q48.15-3.4 50.35-6.08 52.55-8.75 52.55-13L52.55-13Q52.55-15.6 51.45-17.78 50.35-19.95 48.47-21.28 46.6-22.6 44.2-22.6L44.2-22.6Q40.25-22.6 38.05-20 35.85-17.4 35.85-13.1L35.85-13.1Q35.85-10.5 36.95-8.28 38.05-6.05 39.92-4.73 41.8-3.4 44.2-3.4ZM74.09 0.6L74.09 0.6Q70.4 0.6 67.45-1.13 64.5-2.85 62.82-5.93 61.15-9 61.15-13L61.15-13Q61.15-17.2 62.85-20.25 64.55-23.3 67.5-24.95 70.45-26.6 74.09-26.6L74.09-26.6Q77.75-26.6 80.67-24.95 83.59-23.3 85.32-20.28 87.05-17.25 87.05-13.1L87.05-13.1Q87.05-8.95 85.34-5.88 83.65-2.8 80.72-1.1 77.8 0.6 74.09 0.6ZM74.09-3.4L74.09-3.4Q78.05-3.4 80.25-6.08 82.45-8.75 82.45-13L82.45-13Q82.45-15.6 81.34-17.78 80.25-19.95 78.37-21.28 76.5-22.6 74.09-22.6L74.09-22.6Q70.15-22.6 67.95-20 65.75-17.4 65.75-13.1L65.75-13.1Q65.75-10.5 66.84-8.28 67.95-6.05 69.82-4.73 71.7-3.4 74.09-3.4ZM102.89 0.6L102.89 0.6Q99.69 0.6 97.04-1.05 94.39-2.7 92.84-5.73 91.29-8.75 91.29-12.85L91.29-12.85Q91.29-16.8 92.87-19.9 94.44-23 97.07-24.8 99.69-26.6 102.84-26.6L102.84-26.6Q105.44-26.6 107.32-25.55 109.19-24.5 110.24-23.4L110.24-23.4 110.24-37 114.74-37 114.74-6.3Q114.74-4.4 115.67-3.83 116.59-3.25 117.69-3.25L117.69-3.25 116.74 0.25Q111.99 0.25 110.94-3.55L110.94-3.55Q109.84-2 107.87-0.7 105.89 0.6 102.89 0.6ZM103.89-3.4L103.89-3.4Q105.74-3.4 107.42-4.28 109.09-5.15 110.24-6.55L110.24-6.55 110.24-19.45Q109.29-20.65 107.59-21.68 105.89-22.7 103.84-22.7L103.84-22.7Q101.44-22.7 99.64-21.4 97.84-20.1 96.87-17.93 95.89-15.75 95.89-13L95.89-13Q95.89-10.25 96.94-8.08 97.99-5.9 99.82-4.65 101.64-3.4 103.89-3.4ZM135.54 11.6L135.54 11.6Q132.49 11.6 130.44 10.45L130.44 10.45 131.54 6.7Q132.19 7.1 133.11 7.4 134.04 7.7 134.99 7.7L134.99 7.7Q139.24 7.7 139.24 2.4L139.24 2.4 139.24-26 143.74-26 143.74 2.85Q143.74 5.9 142.64 7.83 141.54 9.75 139.69 10.68 137.84 11.6 135.54 11.6ZM141.39-30.45L141.39-30.45Q140.09-30.45 139.16-31.4 138.24-32.35 138.24-33.6L138.24-33.6Q138.24-35.05 139.09-35.9 139.94-36.75 141.39-36.75L141.39-36.75Q142.69-36.75 143.61-35.83 144.54-34.9 144.54-33.6L144.54-33.6Q144.54-32.2 143.69-31.33 142.84-30.45 141.39-30.45ZM162.69 0.6L162.69 0.6Q158.99 0.6 156.04-1.13 153.09-2.85 151.41-5.93 149.74-9 149.74-13L149.74-13Q149.74-17.2 151.44-20.25 153.14-23.3 156.09-24.95 159.04-26.6 162.69-26.6L162.69-26.6Q166.34-26.6 169.26-24.95 172.19-23.3 173.91-20.28 175.64-17.25 175.64-13.1L175.64-13.1Q175.64-8.95 173.94-5.88 172.24-2.8 169.31-1.1 166.39 0.6 162.69 0.6ZM162.69-3.4L162.69-3.4Q166.64-3.4 168.84-6.08 171.04-8.75 171.04-13L171.04-13Q171.04-15.6 169.94-17.78 168.84-19.95 166.96-21.28 165.09-22.6 162.69-22.6L162.69-22.6Q158.74-22.6 156.54-20 154.34-17.4 154.34-13.1L154.34-13.1Q154.34-10.5 155.44-8.28 156.54-6.05 158.41-4.73 160.29-3.4 162.69-3.4ZM193.33 0.6L193.33 0.6Q191.08 0.6 189.11-0.23 187.13-1.05 185.83-2.15L185.83-2.15 185.83 0 181.63 0 181.63-37 186.13-37 186.13-23.3Q187.13-24.45 189.06-25.53 190.98-26.6 193.63-26.6L193.63-26.6Q196.63-26.6 199.26-25.03 201.88-23.45 203.48-20.48 205.08-17.5 205.08-13.25L205.08-13.25Q205.08-10.15 204.08-7.6 203.08-5.05 201.41-3.23 199.73-1.4 197.63-0.4 195.53 0.6 193.33 0.6ZM192.13-3.4L192.13-3.4Q194.58-3.4 196.46-4.6 198.33-5.8 199.41-8 200.48-10.2 200.48-13.1L200.48-13.1Q200.48-16.1 199.41-18.25 198.33-20.4 196.56-21.55 194.78-22.7 192.63-22.7L192.63-22.7Q190.48-22.7 188.76-21.63 187.03-20.55 186.13-19.3L186.13-19.3 186.13-5.4Q187.28-4.5 188.83-3.95 190.38-3.4 192.13-3.4ZM218.33 0.6L218.33 0.6Q215.38 0.6 213.01-0.15 210.63-0.9 209.08-2.1L209.08-2.1 210.98-5.85Q212.28-4.75 214.26-4.03 216.23-3.3 218.48-3.3L218.48-3.3Q221.28-3.3 222.71-4.23 224.13-5.15 224.13-6.6L224.13-6.6Q224.13-7.65 223.61-8.45 223.08-9.25 221.68-10.03 220.28-10.8 217.63-11.7L217.63-11.7Q213.98-12.95 212.16-14.68 210.33-16.4 210.33-19.45L210.33-19.45Q210.33-22.45 212.96-24.53 215.58-26.6 220.23-26.6L220.23-26.6Q222.73-26.6 224.68-26.08 226.63-25.55 228.18-24.75L228.18-24.75 226.93-21.05Q225.58-21.85 223.86-22.35 222.13-22.85 220.03-22.85L220.03-22.85Q217.43-22.85 216.08-21.8 214.73-20.75 214.73-19.5L214.73-19.5Q214.73-18.3 215.78-17.45 216.83-16.6 219.88-15.6L219.88-15.6Q224.83-13.95 226.78-11.95 228.73-9.95 228.73-6.95L228.73-6.95Q228.73-3.45 225.91-1.43 223.08 0.6 218.33 0.6ZM269.23-15.1L252.23-15.1 252.23-19.2 269.23-19.2 269.23-15.1ZM304.27 11.6L304.27 11.6Q301.97 11.6 299.8 11.05 297.62 10.5 295.92 9.4L295.92 9.4 297.57 5.5Q298.77 6.45 300.37 7.08 301.97 7.7 304.27 7.7L304.27 7.7Q307.82 7.7 309.85 5.83 311.87 3.95 311.87-0.15L311.87-0.15 311.87-3.35Q310.87-2.15 309-1.07 307.12 0 304.52 0L304.52 0Q301.57 0 298.92-1.53 296.27-3.05 294.62-6 292.97-8.95 292.97-13.1L292.97-13.1Q292.97-17 294.6-20.05 296.22-23.1 298.97-24.85 301.72-26.6 305.02-26.6L305.02-26.6Q307.22-26.6 309.02-25.85 310.82-25.1 312.12-24L312.12-24 312.12-26 316.22-26 316.22-0.6Q316.22 3.7 314.72 6.4 313.22 9.1 310.55 10.35 307.87 11.6 304.27 11.6ZM305.52-4L305.52-4Q307.52-4 309.12-4.9 310.72-5.8 311.72-7L311.72-7 311.72-20.6Q310.62-21.4 309.07-22.05 307.52-22.7 305.47-22.7L305.47-22.7Q303.42-22.7 301.62-21.6 299.82-20.5 298.7-18.43 297.57-16.35 297.57-13.35L297.57-13.35Q297.57-10.5 298.7-8.4 299.82-6.3 301.62-5.15 303.42-4 305.52-4ZM334.92 0.6L334.92 0.6Q331.22 0.6 328.27-1.13 325.32-2.85 323.64-5.93 321.97-9 321.97-13L321.97-13Q321.97-17.2 323.67-20.25 325.37-23.3 328.32-24.95 331.27-26.6 334.92-26.6L334.92-26.6Q338.57-26.6 341.49-24.95 344.42-23.3 346.14-20.28 347.87-17.25 347.87-13.1L347.87-13.1Q347.87-8.95 346.17-5.88 344.47-2.8 341.54-1.1 338.62 0.6 334.92 0.6ZM334.92-3.4L334.92-3.4Q338.87-3.4 341.07-6.08 343.27-8.75 343.27-13L343.27-13Q343.27-15.6 342.17-17.78 341.07-19.95 339.19-21.28 337.32-22.6 334.92-22.6L334.92-22.6Q330.97-22.6 328.77-20 326.57-17.4 326.57-13.1L326.57-13.1Q326.57-10.5 327.67-8.28 328.77-6.05 330.64-4.73 332.52-3.4 334.92-3.4ZM364.81 0.6L364.81 0.6Q361.12 0.6 358.17-1.13 355.22-2.85 353.54-5.93 351.87-9 351.87-13L351.87-13Q351.87-17.2 353.56-20.25 355.26-23.3 358.22-24.95 361.17-26.6 364.81-26.6L364.81-26.6Q368.47-26.6 371.39-24.95 374.31-23.3 376.04-20.28 377.76-17.25 377.76-13.1L377.76-13.1Q377.76-8.95 376.06-5.88 374.37-2.8 371.44-1.1 368.51 0.6 364.81 0.6ZM364.81-3.4L364.81-3.4Q368.76-3.4 370.97-6.08 373.17-8.75 373.17-13L373.17-13Q373.17-15.6 372.06-17.78 370.97-19.95 369.09-21.28 367.22-22.6 364.81-22.6L364.81-22.6Q360.87-22.6 358.67-20 356.47-17.4 356.47-13.1L356.47-13.1Q356.47-10.5 357.56-8.28 358.67-6.05 360.54-4.73 362.42-3.4 364.81-3.4ZM393.61 0.6L393.61 0.6Q390.41 0.6 387.76-1.05 385.11-2.7 383.56-5.73 382.01-8.75 382.01-12.85L382.01-12.85Q382.01-16.8 383.59-19.9 385.16-23 387.79-24.8 390.41-26.6 393.56-26.6L393.56-26.6Q396.16-26.6 398.04-25.55 399.91-24.5 400.96-23.4L400.96-23.4 400.96-37 405.46-37 405.46-6.3Q405.46-4.4 406.39-3.83 407.31-3.25 408.41-3.25L408.41-3.25 407.46 0.25Q402.71 0.25 401.66-3.55L401.66-3.55Q400.56-2 398.59-0.7 396.61 0.6 393.61 0.6ZM394.61-3.4L394.61-3.4Q396.46-3.4 398.14-4.28 399.81-5.15 400.96-6.55L400.96-6.55 400.96-19.45Q400.01-20.65 398.31-21.68 396.61-22.7 394.56-22.7L394.56-22.7Q392.16-22.7 390.36-21.4 388.56-20.1 387.59-17.93 386.61-15.75 386.61-13L386.61-13Q386.61-10.25 387.66-8.08 388.71-5.9 390.54-4.65 392.36-3.4 394.61-3.4ZM438.51 0.6L438.51 0.6Q434.76 0.6 432.58-1.88 430.41-4.35 430.41-8.95L430.41-8.95 430.41-21.15 425.91-21.15 425.91-25.05 430.51-25.05 431.46-33.25 434.91-33.25 434.91-25.05 442.11-25.05 442.11-21.15 434.91-21.15 434.91-8.6Q434.91-5.7 436.13-4.55 437.36-3.4 439.06-3.4L439.06-3.4Q440.31-3.4 441.43-3.8 442.56-4.2 443.51-4.75L443.51-4.75 444.76-1.15Q443.76-0.55 442.06 0.03 440.36 0.6 438.51 0.6ZM458.2 0.6L458.2 0.6Q454.95 0.6 452.31-1.05 449.65-2.7 448.08-5.73 446.5-8.75 446.5-12.85L446.5-12.85Q446.5-16.75 448.08-19.85 449.65-22.95 452.43-24.78 455.2-26.6 458.81-26.6L458.81-26.6Q461.06-26.6 462.88-25.83 464.7-25.05 466.06-23.9L466.06-23.9 466.06-26 470.15-26 470.15-6.3Q470.15-4.4 471.08-3.83 472-3.25 473.11-3.25L473.11-3.25 472.15 0.25Q467.36 0.25 466.36-3.65L466.36-3.65Q465.2-2.05 463.23-0.73 461.25 0.6 458.2 0.6ZM459.2-3.4L459.2-3.4Q461.11-3.4 462.81-4.33 464.5-5.25 465.65-6.65L465.65-6.65 465.65-20.6Q464.31-21.55 462.68-22.13 461.06-22.7 459.25-22.7L459.25-22.7Q456.86-22.7 455.03-21.48 453.2-20.25 452.15-18.07 451.11-15.9 451.11-13L451.11-13Q451.11-10.2 452.15-8.03 453.2-5.85 455.06-4.63 456.9-3.4 459.2-3.4ZM487 0.6L487 0.6Q484.7 0.6 482.85-0.28 481-1.15 479.93-3.1 478.85-5.05 478.85-8.15L478.85-8.15 478.85-37 483.35-37 483.35-8.6Q483.35-5.9 484.48-4.6 485.6-3.3 487.6-3.3L487.6-3.3Q488.55-3.3 489.48-3.53 490.4-3.75 491.05-4.05L491.05-4.05 492.15-0.4Q491.25 0 489.93 0.3 488.6 0.6 487 0.6ZM506.05 0.6L506.05 0.6Q500.45 0.6 497.18-2.98 493.9-6.55 493.9-13L493.9-13Q493.9-16.9 495.38-19.98 496.85-23.05 499.5-24.83 502.15-26.6 505.65-26.6L505.65-26.6Q509.4-26.6 511.88-24.98 514.35-23.35 515.6-20.6 516.85-17.85 516.85-14.55L516.85-14.55Q516.85-12.8 516.7-11.15L516.7-11.15 498.5-11.15Q498.95-7.5 501.05-5.45 503.15-3.4 506.6-3.4L506.6-3.4Q508.85-3.4 510.65-3.88 512.45-4.35 514.1-5.1L514.1-5.1 515.15-1.25Q513.35-0.45 511.1 0.08 508.85 0.6 506.05 0.6ZM498.45-14.8L498.45-14.8 512.7-14.8Q512.7-18.6 510.8-20.65 508.9-22.7 505.55-22.7L505.55-22.7Q502.65-22.7 500.75-20.68 498.85-18.65 498.45-14.8ZM527.35 0L522.85 0 522.85-26 527.2-26 527.2-21.65Q528.6-23.75 530.77-25.18 532.95-26.6 535.95-26.6L535.95-26.6Q540.35-26.6 542.52-23.95 544.7-21.3 544.7-16.95L544.7-16.95 544.7 0 540.2 0 540.2-16.45Q540.2-19.25 538.87-20.95 537.55-22.65 535.2-22.65L535.2-22.65Q532.9-22.65 530.85-21.03 528.8-19.4 527.35-17.2L527.35-17.2 527.35 0ZM561.54 0.6L561.54 0.6Q557.79 0.6 555.62-1.88 553.44-4.35 553.44-8.95L553.44-8.95 553.44-21.15 548.94-21.15 548.94-25.05 553.54-25.05 554.49-33.25 557.94-33.25 557.94-25.05 565.14-25.05 565.14-21.15 557.94-21.15 557.94-8.6Q557.94-5.7 559.17-4.55 560.39-3.4 562.09-3.4L562.09-3.4Q563.34-3.4 564.47-3.8 565.59-4.2 566.54-4.75L566.54-4.75 567.79-1.15Q566.79-0.55 565.09 0.03 563.39 0.6 561.54 0.6ZM579.79 0.6L579.79 0.6Q576.84 0.6 574.47-0.15 572.09-0.9 570.54-2.1L570.54-2.1 572.44-5.85Q573.74-4.75 575.72-4.03 577.69-3.3 579.94-3.3L579.94-3.3Q582.74-3.3 584.17-4.23 585.59-5.15 585.59-6.6L585.59-6.6Q585.59-7.65 585.07-8.45 584.54-9.25 583.14-10.03 581.74-10.8 579.09-11.7L579.09-11.7Q575.44-12.95 573.62-14.68 571.79-16.4 571.79-19.45L571.79-19.45Q571.79-22.45 574.42-24.53 577.04-26.6 581.69-26.6L581.69-26.6Q584.19-26.6 586.14-26.08 588.09-25.55 589.64-24.75L589.64-24.75 588.39-21.05Q587.04-21.85 585.32-22.35 583.59-22.85 581.49-22.85L581.49-22.85Q578.89-22.85 577.54-21.8 576.19-20.75 576.19-19.5L576.19-19.5Q576.19-18.3 577.24-17.45 578.29-16.6 581.34-15.6L581.34-15.6Q586.29-13.95 588.24-11.95 590.19-9.95 590.19-6.95L590.19-6.95Q590.19-3.45 587.37-1.43 584.54 0.6 579.79 0.6Z" opacity="1" transform="matrix(1,0,0,1,0,0)" fill="#000000" class="slogan-text-1" data-fill-palette-color="secondary" id="text-1"></path></svg></g></svg></g></svg></g></svg></g><g transform="matrix(1,0,0,1,120.73013385908492,0)"><svg viewBox="0 0 156.0373322818301 115.4374409109886" height="115.4374409109886" width="156.0373322818301"><g><svg xmlns="http://www.w3.org/2000/svg" xmlns:xlink="http://www.w3.org/1999/xlink" version="1.1" x="8" y="0" viewBox="5 12.905 90 74.19" enable-background="new 0 0 100 100" xml:space="preserve" height="115.4374409109886" width="140.0373322818301" class="icon-icon-0" data-fill-palette-color="accent" id="icon-0"><g fill="#ffbf5d" data-fill-palette-color="accent"><path fill="#000000" d="M91.014 12.905H53.986A3.99 3.99 0 0 0 50 16.891V28.716H8.75A3.754 3.754 0 0 0 5 32.466V61.453A3.754 3.754 0 0 0 8.75 65.203H50V83.109A3.99 3.99 0 0 0 53.986 87.095H91.014A3.99 3.99 0 0 0 95 83.109V16.891A3.99 3.99 0 0 0 91.014 12.905M8.75 31.149H60.845C61.355 31.149 61.786 31.449 62.004 31.874L61.043 32.466 36.633 47.5A3.65 3.65 0 0 1 32.952 47.513L8.521 32.466 7.581 31.887A1.31 1.31 0 0 1 8.75 31.149M58.498 65.203H60.845A3.754 3.754 0 0 0 64.595 61.453V32.466A3.754 3.754 0 0 0 60.845 28.716H58.498V22.027C58.498 21.697 58.776 21.419 59.106 21.419H85.863C86.193 21.419 86.471 21.697 86.471 22.027V69.461A0.607 0.607 0 0 1 85.865 70.068H59.105A0.607 0.607 0 0 1 58.498 69.461zM8.75 62.77A1.32 1.32 0 0 1 7.433 61.453V34.653L31.699 49.598A6.07 6.07 0 0 0 34.776 50.435 6.14 6.14 0 0 0 37.888 49.585L62.162 34.635V61.454C62.162 62.18 61.571 62.771 60.845 62.771zM92.568 83.109C92.568 83.965 91.871 84.663 91.014 84.663H53.986A1.556 1.556 0 0 1 52.432 83.109V65.203H56.065V69.461A3.04 3.04 0 0 0 59.104 72.5H85.864A3.04 3.04 0 0 0 88.902 69.461V22.027A3.044 3.044 0 0 0 85.861 18.986H59.106A3.044 3.044 0 0 0 56.065 22.027V28.716H52.432V16.891C52.432 16.035 53.129 15.337 53.986 15.337H91.014C91.87 15.337 92.568 16.034 92.568 16.891z" data-fill-palette-color="accent"></path><path fill="#000000" d="M72.499 74.956C70.393 74.956 68.681 76.669 68.681 78.774S70.394 82.592 72.499 82.592 76.317 80.879 76.317 78.774 74.605 74.956 72.499 74.956M72.499 80.161A1.39 1.39 0 0 1 71.113 78.775C71.113 78.011 71.735 77.389 72.499 77.389S73.885 78.011 73.885 78.775 73.263 80.161 72.499 80.161" data-fill-palette-color="accent"></path></g></svg></g></svg></g><g><rect width="44.19701385908495" height="4.620126674333347" y="109.81731423665525" x="276.767466140915" fill="#000000" data-fill-palette-color="secondary"></rect><rect width="44.19701385908495" height="4.620126674333347" y="109.81731423665525" x="76.53311999999997" fill="#000000" data-fill-palette-color="secondary"></rect></g></svg></g><defs></defs></svg><rect width="395.52" height="226.6427612691736" fill="none" stroke="none" visibility="hidden"></rect></g></svg></g></svg>